<?xml version="1.0" standalone="no"?>
<!DOCTYPE svg PUBLIC "-//W3C//DTD SVG 20010904//EN"
 "http://www.w3.org/TR/2001/REC-SVG-20010904/DTD/svg10.dtd">
<svg version="1.0" xmlns="http://www.w3.org/2000/svg"
 width="260.000000pt" height="260.000000pt" viewBox="0 0 260.000000 260.000000"
 preserveAspectRatio="xMidYMid meet">
<metadata>
Created by potrace 1.14, written by Peter Selinger 2001-2017
</metadata>
<g transform="translate(0.000000,260.000000) scale(0.100000,-0.100000)"
fill="#000000" stroke="none">
<path d="M165 2020 c-79 -7 -98 -11 -142 -33 l-23 -10 0 -672 0 -672 61 -7
c34 -3 115 -6 179 -6 112 0 120 1 181 32 66 34 106 84 108 136 1 12 9 25 19
29 9 3 26 14 37 23 38 32 101 43 174 30 86 -16 110 -28 134 -67 10 -18 23 -33
28 -33 5 0 18 -19 28 -42 41 -94 160 -158 295 -158 61 0 77 4 107 25 42 31 68
65 69 86 0 15 109 155 134 171 6 4 63 8 126 8 115 0 116 0 168 -35 52 -34 176
-96 219 -109 11 -4 27 -13 33 -21 10 -12 46 -15 186 -15 95 0 175 4 178 8 3 5
34 17 71 27 l65 19 0 467 0 466 -106 6 c-88 4 -111 9 -133 26 -14 11 -52 35
-84 53 -57 31 -117 90 -117 115 0 7 -15 30 -34 50 -18 21 -39 52 -47 68 -13
27 -20 30 -64 33 -46 3 -101 -7 -150 -27 -11 -5 -39 -17 -62 -26 -23 -10 -50
-26 -59 -36 -10 -11 -23 -19 -29 -19 -7 0 -15 -6 -18 -14 -3 -8 -19 -17 -36
-21 -17 -4 -52 -21 -79 -39 -26 -18 -74 -48 -107 -67 -60 -34 -60 -34 -185
-33 -185 1 -373 36 -420 78 -14 13 -39 28 -57 35 -17 7 -44 26 -60 42 -15 15
-33 29 -39 29 -6 0 -19 9 -29 20 -10 11 -27 22 -39 26 -11 3 -34 18 -49 33
-28 26 -30 26 -190 27 -89 1 -198 -2 -242 -6z m553 -533 c17 -12 17 -127 -1
-127 -8 0 -20 12 -27 26 -15 28 -77 64 -109 64 -19 0 -20 -7 -20 -135 0 -98 3
-137 12 -140 7 -2 29 -6 50 -10 20 -3 37 -11 37 -18 0 -9 -51 -12 -200 -13
-110 0 -200 3 -200 8 0 10 11 14 62 23 l37 6 0 139 1 140 -26 0 c-42 0 -96
-31 -108 -62 -6 -15 -16 -28 -24 -28 -10 0 -12 16 -10 62 3 61 4 63 33 68 49
8 479 6 493 -3z m478 -18 c103 -51 136 -177 67 -259 -48 -57 -96 -74 -208 -75
-92 0 -104 2 -148 28 -35 21 -54 41 -68 70 -33 74 -20 167 30 211 66 59 232
72 327 25z m564 3 c14 -6 39 -24 55 -42 28 -29 30 -36 30 -108 0 -64 -4 -82
-22 -108 -42 -58 -80 -69 -243 -69 -88 0 -146 4 -148 10 -1 6 14 12 35 15 35
5 38 7 37 38 0 17 -1 79 -2 137 l-2 105 -35 0 c-46 0 -48 27 -2 35 90 15 243
8 297 -13z m577 -1 c78 -39 112 -104 100 -191 -12 -88 -88 -141 -216 -148
-128 -7 -204 28 -242 113 -48 105 8 215 126 244 63 16 185 7 232 -18z"/>
<path d="M1039 1439 c-29 -55 -16 -265 18 -276 6 -2 20 8 30 23 14 23 18 48
17 129 0 102 -12 145 -39 145 -8 0 -19 -10 -26 -21z"/>
<path d="M1697 1453 c-3 -5 -3 -68 0 -141 6 -126 7 -133 26 -130 70 11 77 231
9 267 -24 13 -29 13 -35 4z"/>
<path d="M2181 1438 c-25 -67 -20 -229 9 -263 18 -22 39 -6 51 39 14 50 6 211
-11 232 -18 21 -39 17 -49 -8z"/>
</g>
</svg>
